<svg width="446" height="61" viewBox="0 0 446 61" fill="none" xmlns="http://www.w3.org/2000/svg">
<path d="M48.2697 18.7181C52.9815 27.9619 51.2918 39.311 43.9631 46.7562C39.4848 51.2945 33.5366 53.7902 27.2107 53.7902C21.9631 53.7902 16.8048 51.9986 12.6769 48.743L11.9625 48.1784L11.3169 48.8267L4.25601 55.9931L1.34375 53.0373L8.26038 46.0103L8.40462 45.8709L39.5397 14.2705L38.5438 13.5525C35.2194 11.1544 31.2975 9.87864 27.197 9.87864C21.97 9.87864 17.059 11.9491 13.3637 15.6996C7.68342 21.4648 6.06931 30.1927 9.23571 37.631L6.14486 40.768C1.43304 31.5242 3.1227 20.1751 10.4446 12.7368C14.9229 8.19858 20.871 5.7029 27.197 5.7029C32.4445 5.7029 37.6028 7.49449 41.7308 10.75L42.4451 11.3147L43.0908 10.6664L50.1516 3.5L53.0639 6.45579L46.003 13.6222L45.0552 14.5912L41.5866 18.1046L39.5878 20.1333L15.7334 44.3442L14.8679 45.2226L15.8639 45.9406C19.1882 48.3387 23.1102 49.6144 27.2107 49.6144C32.4377 49.6144 37.3487 47.544 41.0439 43.7935C46.7242 38.0283 48.3383 29.3004 45.1719 21.8621L48.2697 18.7181Z" fill="#624DE3" stroke="#624DE3" stroke-width="1.36795"/>
<path d="M86.1086 51.3149C83.6436 51.3149 81.4819 50.8219 79.6237 49.8359C77.8033 48.8499 76.3812 47.4657 75.3572 45.6833C74.3712 43.863 73.8782 41.7582 73.8782 39.369V30.8362C73.8782 28.4091 74.3712 26.3043 75.3572 24.5219C76.3812 22.7395 77.8033 21.3553 79.6237 20.3693C81.4819 19.3833 83.6436 18.8903 86.1086 18.8903C88.5736 18.8903 90.7163 19.3833 92.5366 20.3693C94.3949 21.3553 95.817 22.7395 96.803 24.5219C97.827 26.3043 98.339 28.4091 98.339 30.8362V36.3541H78.8841V39.369C78.8841 41.834 79.5099 43.7302 80.7614 45.0576C82.0128 46.347 83.7953 46.9917 86.1086 46.9917C88.0806 46.9917 89.6734 46.6503 90.887 45.9677C92.1005 45.2472 92.84 44.1853 93.1055 42.7821H98.2252C97.8839 45.3989 96.5945 47.4847 94.357 49.0395C92.1574 50.5565 89.4079 51.3149 86.1086 51.3149ZM93.333 32.941V30.8362C93.333 28.3712 92.7073 26.475 91.4558 25.1477C90.2423 23.8203 88.4599 23.1567 86.1086 23.1567C83.7953 23.1567 82.0128 23.8203 80.7614 25.1477C79.5099 26.475 78.8841 28.3712 78.8841 30.8362V32.4859H93.7312L93.333 32.941ZM102.697 50.7461V19.4591H107.817V25.4321H108.897L107.817 26.6267C107.817 24.1616 108.556 22.2655 110.035 20.9381C111.514 19.5729 113.562 18.8903 116.179 18.8903C119.326 18.8903 121.829 19.8573 123.688 21.7914C125.546 23.7255 126.475 26.3612 126.475 29.6985V50.7461H121.355V30.2673C121.355 28.0299 120.749 26.3233 119.535 25.1477C118.359 23.9341 116.748 23.3273 114.7 23.3273C112.576 23.3273 110.888 23.972 109.637 25.2614C108.423 26.5508 107.817 28.4091 107.817 30.8362V50.7461H102.697ZM143.177 51.3149C140.674 51.3149 138.475 50.8409 136.578 49.8928C134.72 48.9447 133.279 47.5795 132.255 45.7971C131.231 43.9767 130.719 41.834 130.719 39.369V30.8362C130.719 28.3332 131.231 26.1906 132.255 24.4081C133.279 22.6257 134.72 21.2605 136.578 20.3124C138.475 19.3643 140.674 18.8903 143.177 18.8903C146.78 18.8903 149.681 19.8573 151.881 21.7914C154.08 23.7255 155.237 26.3612 155.351 29.6985H150.231C150.117 27.6885 149.434 26.1526 148.183 25.0908C146.969 23.991 145.301 23.4411 143.177 23.4411C140.94 23.4411 139.157 24.0858 137.83 25.3752C136.503 26.6267 135.839 28.4281 135.839 30.7793V39.369C135.839 41.7203 136.503 43.5406 137.83 44.83C139.157 46.1194 140.94 46.7641 143.177 46.7641C145.301 46.7641 146.969 46.2142 148.183 45.1144C149.434 44.0147 150.117 42.4787 150.231 40.5067H155.351C155.237 43.844 154.08 46.4797 151.881 48.4138C149.681 50.3479 146.78 51.3149 143.177 51.3149ZM160.619 50.7461V19.4591H165.625V25.4321H166.819L165.17 29.1296C165.17 25.7544 165.89 23.2136 167.331 21.507C168.81 19.7625 170.991 18.8903 173.873 18.8903C177.172 18.8903 179.789 19.9332 181.723 22.019C183.695 24.0668 184.681 26.8542 184.681 30.3811V32.2583H179.562V30.8362C179.562 28.3712 178.955 26.4939 177.741 25.2045C176.566 23.8772 174.878 23.2136 172.678 23.2136C170.517 23.2136 168.81 23.8772 167.559 25.2045C166.345 26.5319 165.738 28.4091 165.738 30.8362V50.7461H160.619ZM192.851 60.9855L197.458 48.812L185.854 19.4591H191.542L198.823 38.8002C199.089 39.4449 199.335 40.2223 199.563 41.1325C199.791 42.0047 199.98 42.7442 200.132 43.351C200.284 42.7442 200.473 42.0047 200.701 41.1325C200.928 40.2223 201.156 39.4449 201.383 38.8002L208.21 19.4591H213.727L198.312 60.9855H192.851ZM216.379 60.9855V19.4591H221.499V25.4321H222.522L221.499 26.6267C221.499 24.2375 222.276 22.3603 223.831 20.995C225.424 19.5919 227.509 18.8903 230.088 18.8903C233.236 18.8903 235.739 19.9332 237.597 22.019C239.493 24.0668 240.441 26.8921 240.441 30.4949V39.6534C240.441 42.0426 240.005 44.1095 239.133 45.8539C238.299 47.5984 237.104 48.9447 235.549 49.8928C234.032 50.8409 232.212 51.3149 230.088 51.3149C227.547 51.3149 225.481 50.6134 223.888 49.2102C222.295 47.807 221.499 45.9298 221.499 43.5785L222.522 44.7731H221.385L221.499 51.8838V60.9855H216.379ZM228.382 46.8779C230.543 46.8779 232.231 46.2332 233.444 44.9438C234.696 43.6544 235.322 41.7961 235.322 39.369V30.8362C235.322 28.4091 234.696 26.5508 233.444 25.2614C232.231 23.972 230.543 23.3273 228.382 23.3273C226.296 23.3273 224.627 23.991 223.376 25.3183C222.124 26.6456 221.499 28.4849 221.499 30.8362V39.369C221.499 41.7203 222.124 43.5596 223.376 44.8869C224.627 46.2142 226.296 46.8779 228.382 46.8779ZM260.045 50.7461C257.352 50.7461 255.247 50.0255 253.73 48.5844C252.251 47.1434 251.512 45.1144 251.512 42.4977V24.1237H242.695V19.4591H251.512V10.6419H256.631V19.4591H269.146V24.1237H256.631V42.4977C256.631 44.8869 257.769 46.0815 260.045 46.0815H268.577V50.7461H260.045ZM285.052 51.3149C283.611 51.3149 282.454 50.8978 281.582 50.0635C280.748 49.2291 280.33 48.1104 280.33 46.7072C280.33 45.2282 280.748 44.0526 281.582 43.1803C282.454 42.3081 283.611 41.872 285.052 41.872C286.493 41.872 287.631 42.3081 288.465 43.1803C289.337 44.0526 289.773 45.2282 289.773 46.7072C289.773 48.1104 289.337 49.2291 288.465 50.0635C287.631 50.8978 286.493 51.3149 285.052 51.3149ZM316.886 50.7461C314.193 50.7461 312.088 50.0255 310.571 48.5844C309.092 47.1434 308.353 45.1144 308.353 42.4977V24.1237H299.536V19.4591H308.353V10.6419H313.472V19.4591H325.987V24.1237H313.472V42.4977C313.472 44.8869 314.61 46.0815 316.886 46.0815H325.418V50.7461H316.886ZM331.142 50.7461V19.4591H336.148V25.4321H337.342L335.692 29.1296C335.692 25.7544 336.413 23.2136 337.854 21.507C339.333 19.7625 341.514 18.8903 344.396 18.8903C347.695 18.8903 350.312 19.9332 352.246 22.019C354.218 24.0668 355.204 26.8542 355.204 30.3811V32.2583H350.084V30.8362C350.084 28.3712 349.478 26.4939 348.264 25.2045C347.088 23.8772 345.401 23.2136 343.201 23.2136C341.04 23.2136 339.333 23.8772 338.082 25.2045C336.868 26.5319 336.261 28.4091 336.261 30.8362V50.7461H331.142ZM367.583 51.3149C364.284 51.3149 361.686 50.4806 359.79 48.812C357.893 47.1054 356.945 44.811 356.945 41.9289C356.945 39.0087 357.893 36.7144 359.79 35.0457C361.686 33.3771 364.246 32.5428 367.469 32.5428H377.14V29.4141C377.14 27.48 376.552 26.0009 375.376 24.977C374.239 23.9151 372.608 23.3842 370.484 23.3842C368.626 23.3842 367.071 23.7824 365.819 24.5788C364.568 25.3373 363.847 26.3802 363.658 27.7075H358.538C358.879 25.0149 360.15 22.8722 362.349 21.2795C364.549 19.6867 367.298 18.8903 370.598 18.8903C374.201 18.8903 377.045 19.8194 379.131 21.6776C381.216 23.5359 382.259 26.0578 382.259 29.2434V50.7461H377.253V44.7731H376.4L377.253 43.9198C377.253 46.1953 376.362 47.9966 374.58 49.324C372.835 50.6513 370.503 51.3149 367.583 51.3149ZM368.834 47.2761C371.262 47.2761 373.253 46.6693 374.807 45.4558C376.362 44.2422 377.14 42.6873 377.14 40.7911V36.3541H367.583C365.876 36.3541 364.53 36.8281 363.544 37.7762C362.558 38.7243 362.065 40.0137 362.065 41.6444C362.065 43.3889 362.653 44.7731 363.828 45.7971C365.042 46.7831 366.711 47.2761 368.834 47.2761ZM396.914 51.3149C393.804 51.3149 391.282 50.272 389.348 48.1863C387.452 46.1005 386.504 43.2751 386.504 39.7103V30.5518C386.504 26.949 387.452 24.1048 389.348 22.019C391.244 19.9332 393.766 18.8903 396.914 18.8903C399.492 18.8903 401.559 19.5919 403.114 20.995C404.669 22.3982 405.446 24.2754 405.446 26.6267L404.422 25.4321H405.56L405.446 18.3214V9.21975H410.566V50.7461H405.446V44.7731H404.422L405.446 43.5785C405.446 45.9677 404.669 47.8639 403.114 49.2671C401.559 50.6323 399.492 51.3149 396.914 51.3149ZM398.62 46.8779C400.744 46.8779 402.412 46.2142 403.626 44.8869C404.84 43.5596 405.446 41.7203 405.446 39.369V30.8362C405.446 28.4849 404.84 26.6456 403.626 25.3183C402.412 23.991 400.744 23.3273 398.62 23.3273C396.458 23.3273 394.752 23.972 393.5 25.2614C392.249 26.5508 391.623 28.4091 391.623 30.8362V39.369C391.623 41.7961 392.249 43.6544 393.5 44.9438C394.752 46.2332 396.458 46.8779 398.62 46.8779ZM427.154 51.3149C424.689 51.3149 422.528 50.8219 420.669 49.8359C418.849 48.8499 417.427 47.4657 416.403 45.6833C415.417 43.863 414.924 41.7582 414.924 39.369V30.8362C414.924 28.4091 415.417 26.3043 416.403 24.5219C417.427 22.7395 418.849 21.3553 420.669 20.3693C422.528 19.3833 424.689 18.8903 427.154 18.8903C429.619 18.8903 431.762 19.3833 433.582 20.3693C435.441 21.3553 436.863 22.7395 437.849 24.5219C438.873 26.3043 439.385 28.4091 439.385 30.8362V36.3541H419.93V39.369C419.93 41.834 420.556 43.7302 421.807 45.0576C423.059 46.347 424.841 46.9917 427.154 46.9917C429.126 46.9917 430.719 46.6503 431.933 45.9677C433.146 45.2472 433.886 44.1853 434.151 42.7821H439.271C438.93 45.3989 437.64 47.4847 435.403 49.0395C433.203 50.5565 430.454 51.3149 427.154 51.3149ZM434.379 32.941V30.8362C434.379 28.3712 433.753 26.475 432.502 25.1477C431.288 23.8203 429.506 23.1567 427.154 23.1567C424.841 23.1567 423.059 23.8203 421.807 25.1477C420.556 26.475 419.93 28.3712 419.93 30.8362V32.4859H434.777L434.379 32.941Z" fill="white"/>
</svg>
