<?xml version="1.0" standalone="no"?>
<!DOCTYPE svg PUBLIC "-//W3C//DTD SVG 20010904//EN"
 "http://www.w3.org/TR/2001/REC-SVG-20010904/DTD/svg10.dtd">
<svg version="1.0" xmlns="http://www.w3.org/2000/svg"
 width="328.000000pt" height="328.000000pt" viewBox="0 0 328.000000 328.000000"
 preserveAspectRatio="xMidYMid meet">

<g transform="translate(0.000000,328.000000) scale(0.100000,-0.100000)"
fill="#000000" stroke="none">
<path d="M0 1640 l0 -1640 1640 0 1640 0 0 1640 0 1640 -1640 0 -1640 0 0
-1640z m1947 22 l-588 -588 29 -21 c169 -125 421 -144 617 -46 225 113 360
367 325 614 -6 41 -18 93 -27 117 l-16 43 49 50 49 50 23 -52 c55 -125 71
-314 38 -454 -50 -209 -203 -396 -401 -492 -104 -49 -196 -66 -340 -60 -150 5
-248 35 -360 108 l-78 51 -119 -119 -118 -118 -46 46 -46 46 574 574 c316 316
580 581 586 590 11 14 5 21 -36 48 -160 103 -366 123 -545 55 -170 -65 -315
-229 -362 -411 -22 -85 -20 -236 5 -317 l21 -67 -23 -28 c-33 -40 -68 -65 -78
-55 -4 5 -20 43 -35 84 -20 57 -28 101 -32 181 -12 239 57 420 222 578 90 86
153 125 270 167 75 27 90 28 230 28 138 0 156 -2 229 -27 67 -24 165 -75 227
-119 14 -9 35 7 135 105 l119 117 45 -45 45 -45 -588 -588z"/>
</g>
</svg>
